<svg xmlns="http://www.w3.org/2000/svg" width="147.382" height="115.251" viewBox="0 0 147.382 115.251"><g transform="translate(-609.309 -73.749)"><path d="M747.234,164.582H642.349l52.442-90.833ZM658.943,155h71.7L694.791,92.91Z" fill="#fff"/><path d="M653.412,164.582H618.766l40.209-69.644,17.323,30ZM635.36,155h12.52l17.355-30.06-6.26-10.843Z" fill="#fff"/><path d="M710.485,119.765c-4.237-4.236-8.318-4.1-13.967-3.9-1.174.04-2.388.082-3.642.082-9.073,0-12.828-8.694-13.546-13.291l9.461-1.512c.009.052.932,5.222,4.085,5.222,1.091,0,2.172-.037,3.316-.076,6.509-.222,13.889-.474,21.067,6.706Z" fill="#fff"/><path d="M609.309,173.67h2.86v15.173h-2.86Zm1.033,0h9.132v2.755h-9.132Zm0,6.261h7.984v2.755h-7.984Zm0,6.157h9.132v2.755h-9.132Z" fill="#fff"/><path d="M630.041,189,629,188.781a9.082,9.082,0,0,1-1.952-.642,7.506,7.506,0,0,1-1.633-1.017l1.325-2.359a6.435,6.435,0,0,0,2.025,1.112,7.28,7.28,0,0,0,2.358.391,4.151,4.151,0,0,0,2.171-.475,1.491,1.491,0,0,0,.772-1.341v-.01a1.32,1.32,0,0,0-.344-.96,2.042,2.042,0,0,0-.9-.522,10.869,10.869,0,0,0-1.419-.3.182.182,0,0,0-.058-.01.184.184,0,0,1-.057-.011l-.23-.031a14.114,14.114,0,0,1-2.525-.6,3.716,3.716,0,0,1-1.7-1.263,4.107,4.107,0,0,1-.7-2.562v-.01a4.623,4.623,0,0,1,.657-2.515,4.151,4.151,0,0,1,1.91-1.592,7.53,7.53,0,0,1,3.026-.548,7.722,7.722,0,0,1,1.665.188,8.961,8.961,0,0,1,1.664.543,9.233,9.233,0,0,1,1.545.856l-1.211,2.421a7.657,7.657,0,0,0-1.831-.94,5.558,5.558,0,0,0-1.832-.333,3.979,3.979,0,0,0-2.035.432,1.352,1.352,0,0,0-.72,1.216v.011a1.416,1.416,0,0,0,.376,1.038,2.233,2.233,0,0,0,.929.558,14.539,14.539,0,0,0,1.555.376.757.757,0,0,0,.083.016.82.82,0,0,1,.084.015c.041.007.081.016.119.026a1.125,1.125,0,0,0,.121.027,12.7,12.7,0,0,1,2.405.683,3.747,3.747,0,0,1,1.612,1.294,4.072,4.072,0,0,1,.647,2.437v.021a4.427,4.427,0,0,1-.678,2.484,4.235,4.235,0,0,1-1.978,1.575,8.086,8.086,0,0,1-3.125.543Z" fill="#fff"/><path d="M646.817,189l-1.231-.662a4.419,4.419,0,0,1-1.878-1.931,6.666,6.666,0,0,1-.647-3.063V179.18a6.666,6.666,0,0,1,.647-3.063,4.447,4.447,0,0,1,1.878-1.936,6.139,6.139,0,0,1,2.964-.668,5.247,5.247,0,0,1,2.556.616,5.029,5.029,0,0,1,1.863,1.79,7.707,7.707,0,0,1,1.018,2.833h-2.964a3.837,3.837,0,0,0-.516-1.283,2.473,2.473,0,0,0-.846-.814,2.206,2.206,0,0,0-1.111-.282,2.678,2.678,0,0,0-1.367.328,2.133,2.133,0,0,0-.861.96,3.548,3.548,0,0,0-.3,1.519v4.164a3.507,3.507,0,0,0,.3,1.513,2.13,2.13,0,0,0,.861.955,2.669,2.669,0,0,0,1.367.329,2.3,2.3,0,0,0,1.127-.277,2.369,2.369,0,0,0,.845-.809,3.737,3.737,0,0,0,.5-1.294h2.964a7.86,7.86,0,0,1-1.028,2.833,5.039,5.039,0,0,1-1.858,1.79,5.208,5.208,0,0,1-2.551.616Z" fill="#fff"/><path d="M664.585,173.67H666.4l5.8,15.173h-3.078l-3.632-10.362-3.632,10.362h-3.078Zm-3.016,9.987h7.983v2.755h-7.983Z" fill="#fff"/><path d="M678.356,173.67h2.86v15.173h-2.86Zm1.273,12.418h8.892v2.755h-8.892Z" fill="#fff"/><path d="M699.432,173.67h1.816l5.8,15.173h-3.078l-3.632-10.362-3.632,10.362H693.63Zm-3.016,9.987H704.4v2.755h-7.984Z" fill="#fff"/><path d="M710.7,173.67h11.125v2.755H710.7Zm4.133,1.242h2.859v13.931h-2.859Z" fill="#fff"/><path d="M729.672,188.306a4.819,4.819,0,0,1-1.946-1.962,6.05,6.05,0,0,1-.689-2.938v-4.3a6.05,6.05,0,0,1,.689-2.938,4.817,4.817,0,0,1,1.946-1.961,6.425,6.425,0,0,1,5.813,0,4.823,4.823,0,0,1,1.946,1.961,6.061,6.061,0,0,1,.688,2.938v4.3a6.061,6.061,0,0,1-.688,2.938,4.826,4.826,0,0,1-1.946,1.962,6.433,6.433,0,0,1-5.813,0Zm4.263-2.494a2.259,2.259,0,0,0,.9-.934,2.965,2.965,0,0,0,.318-1.4v-4.446a2.96,2.96,0,0,0-.318-1.4,2.262,2.262,0,0,0-.9-.935,2.971,2.971,0,0,0-2.714,0,2.253,2.253,0,0,0-.9.935,2.96,2.96,0,0,0-.319,1.4v4.446a2.966,2.966,0,0,0,.319,1.4,2.25,2.25,0,0,0,.9.934,2.963,2.963,0,0,0,2.714,0Z" fill="#fff"/><path d="M745.211,173.659h2.86v15.184h-2.86Zm1.138,6.325h5.28a1.378,1.378,0,0,0,.773-.22,1.423,1.423,0,0,0,.516-.626,2.385,2.385,0,0,0,.193-.939,2.284,2.284,0,0,0-.182-.939,1.418,1.418,0,0,0-.517-.626,1.4,1.4,0,0,0-.783-.219h-5.28v-2.756h5.51a4.23,4.23,0,0,1,2.2.564,3.809,3.809,0,0,1,1.471,1.592,5.7,5.7,0,0,1,0,4.768,3.8,3.8,0,0,1-1.476,1.592,4.239,4.239,0,0,1-2.2.564h-5.51Zm3.193,2.285,3.058-.48,4.091,7.054h-3.465Z" fill="#fff"/></g></svg>